<svg width="50" height="50" viewBox="0 0 50 50" fill="none" xmlns="http://www.w3.org/2000/svg">
<path d="M32.5853 49.0971H32.2808C21.884 49.0971 16.8729 44.9993 16.0065 35.8201C15.9129 34.86 16.6153 33.9936 17.5988 33.8999C18.5355 33.8063 19.4253 34.5322 19.519 35.4922C20.198 42.845 23.6636 45.5847 32.3043 45.5847H32.6087C42.1391 45.5847 45.511 42.2127 45.511 32.6823V17.4148C45.511 7.88439 42.1391 4.51244 32.6087 4.51244H32.3043C23.6168 4.51244 20.1512 7.29898 19.519 14.7922C19.4019 15.7523 18.5823 16.4782 17.5988 16.3845C16.6153 16.3143 15.9129 15.4479 15.9831 14.4878C16.7793 5.1681 21.8138 1 32.2808 1H32.5853C44.0827 1 49.0001 5.91742 49.0001 17.4148V32.6823C49.0001 44.1797 44.0827 49.0971 32.5853 49.0971Z" fill="white" stroke="white" stroke-width="1.5"/>
<path d="M32.0199 26.8047H5.37225C4.41218 26.8047 3.61603 26.0085 3.61603 25.0485C3.61603 24.0884 4.41218 23.2922 5.37225 23.2922H32.0199C32.98 23.2922 33.7761 24.0884 33.7761 25.0485C33.7761 26.0085 32.98 26.8047 32.0199 26.8047Z" fill="white" stroke="white" stroke-width="1.5"/>
<path d="M10.5948 34.6494C10.1499 34.6494 9.70501 34.4855 9.35376 34.1342L1.5093 26.2898C0.830232 25.6107 0.830232 24.4867 1.5093 23.8076L9.35376 15.9632C10.0328 15.2841 11.1568 15.2841 11.8359 15.9632C12.515 16.6422 12.515 17.7662 11.8359 18.4453L5.23249 25.0487L11.8359 31.6521C12.515 32.3312 12.515 33.4552 11.8359 34.1342C11.5081 34.4855 11.0397 34.6494 10.5948 34.6494Z" fill="white" stroke="white" stroke-width="1.5"/>
</svg>
